<?xml version="1.0" encoding="utf-8"?>
<!-- Generator: Adobe Illustrator 26.0.1, SVG Export Plug-In . SVG Version: 6.00 Build 0)  -->
<svg version="1.1" id="Layer_1" xmlns="http://www.w3.org/2000/svg" xmlns:xlink="http://www.w3.org/1999/xlink" x="0px" y="0px"
	 viewBox="0 0 640.67 117.94" style="enable-background:new 0 0 640.67 117.94;" xml:space="preserve">
<style type="text/css">
	.st0{fill:#6ABF4B;}
	.st1{fill:#FFFFFF;}
	.st2{fill:#F32735;}
</style>
<g>
	<g>
		<g>
			<polygon class="st0" points="119.26,17.38 125.13,17.37 125.2,25.02 131.07,25.02 130.92,5.66 125.04,5.66 125.1,13.37 
				119.22,13.38 119.16,5.66 113.28,5.67 113.44,25.03 119.32,25.03 			"/>
		</g>
		<g>
			<polygon class="st0" points="195.8,15.87 187.65,15.88 187.62,12.69 194.57,12.68 194.54,8.68 187.59,8.69 187.56,5.5 
				195.08,5.49 195.78,1 181.65,1.01 181.81,20.37 195.83,20.36 			"/>
		</g>
		<g>
			<polygon class="st1" points="258.41,20.43 251.76,20.44 251.64,5.56 245.76,5.57 245.92,24.93 258.44,24.92 			"/>
		</g>
		<g>
			<path class="st1" d="M312.3,19.27l6.51,0l1,3.38l5.88,0l-5.7-19.36l-9.12,0.01l-5.39,19.37l5.88,0L312.3,19.27z M315.62,8.49
				l2.01,6.78l-4.21,0l1.9-6.79L315.62,8.49z"/>
		</g>
		<g>
			<path class="st1" d="M386.98,19.93c1.22-0.29,2.18-0.8,2.88-1.52c0.7-0.72,1.18-1.72,1.46-2.98c0.28-1.26,0.41-2.84,0.4-4.74
				c-0.02-1.92-0.17-3.51-0.47-4.77c-0.3-1.26-0.8-2.25-1.51-2.96c-0.71-0.71-1.68-1.22-2.9-1.52C385.6,1.15,384.04,1,382.15,1
				l-8.85,0.01l0.16,19.36l8.85-0.01C384.2,20.36,385.76,20.22,386.98,19.93z M379.21,5.28l3.54,0c0.98,0,1.66,0.15,2.04,0.45
				c0.38,0.3,0.57,0.83,0.58,1.59l0.05,6.72c0.01,0.76-0.18,1.3-0.56,1.6c-0.38,0.3-1.05,0.45-2.03,0.45l-3.54,0L379.21,5.28z"/>
		</g>
		<g>
			<path class="st2" d="M443.17,23.11c0.74,0.76,1.74,1.31,2.99,1.64c1.25,0.33,2.8,0.49,4.65,0.49c1.87,0,3.42-0.17,4.65-0.5
				c1.23-0.33,2.21-0.88,2.94-1.64c0.73-0.76,1.24-1.8,1.54-3.1c0.3-1.3,0.44-2.93,0.43-4.89s-0.19-3.6-0.51-4.91
				c-0.32-1.31-0.85-2.35-1.6-3.11c-0.74-0.76-1.73-1.31-2.97-1.64c-1.24-0.33-2.79-0.49-4.66-0.49c-1.85,0-3.39,0.17-4.64,0.5
				c-1.24,0.33-2.23,0.88-2.96,1.64c-0.73,0.77-1.24,1.8-1.54,3.12c-0.3,1.31-0.44,2.95-0.43,4.91c0.02,1.96,0.18,3.59,0.51,4.89
				C441.9,21.31,442.43,22.35,443.17,23.11z M447.36,11.4c-0.01-0.66,0.19-1.13,0.57-1.39c0.39-0.27,1.08-0.4,2.08-0.4l4.01,0
				l0.07,9.2c0.01,0.66-0.19,1.13-0.57,1.39c-0.39,0.27-1.09,0.4-2.12,0.4l-3.97,0L447.36,11.4z"/>
		</g>
		<g>
			<path class="st2" d="M518.5,16.68c-0.45,0.02-0.96,0.03-1.54,0.03c-1.11,0-2.24-0.08-3.38-0.23c-1.14-0.15-2.25-0.39-3.35-0.7
				l-0.8,4.49c1.27,0.35,2.59,0.61,3.96,0.77c1.37,0.16,2.8,0.25,4.29,0.25c2.03,0,3.67-0.23,4.92-0.67
				c1.25-0.45,2.17-1.14,2.75-2.08c0.58-0.94,0.87-2.16,0.85-3.67c-0.01-1.34-0.27-2.44-0.78-3.3c-0.51-0.86-1.31-1.52-2.42-2
				c-1.11-0.47-2.55-0.78-4.33-0.93l-2.74-0.21l-0.02-2.66c0.45-0.06,0.86-0.1,1.23-0.13c0.38-0.02,0.9-0.03,1.57-0.03
				c0.91,0,1.79,0.04,2.64,0.14c0.85,0.09,1.83,0.24,2.94,0.45l0.7-4.37C522.6,1.28,520.07,1,517.44,1c-1.94,0-3.48,0.22-4.64,0.65
				c-1.15,0.43-1.97,1.14-2.45,2.12c-0.48,0.98-0.72,2.3-0.7,3.95c0.01,0.99,0.14,1.83,0.39,2.52c0.25,0.69,0.66,1.27,1.22,1.73
				c0.56,0.46,1.3,0.83,2.23,1.08c0.93,0.26,2.06,0.44,3.39,0.54l3.04,0.25l0.02,2.66C519.42,16.6,518.95,16.66,518.5,16.68z"/>
		</g>
		<g>
			<polygon class="st1" points="63.45,32.82 52.48,70.63 51.76,70.63 40.18,32.84 20.11,32.85 16.46,92.82 31.77,92.81 34.05,54.43 
				34.67,54.43 46.25,92.8 58.35,92.79 69.31,54.41 69.93,54.41 72.73,92.78 88.03,92.77 83.41,32.81 			"/>
		</g>
		<g>
			<path class="st1" d="M147.25,44.62c-2.16-2.33-5.08-3.98-8.78-4.93c-3.7-0.96-8.37-1.43-14.03-1.43c-5.65,0-10.32,0.49-14,1.45
				c-3.68,0.96-6.58,2.61-8.7,4.95c-2.12,2.34-3.59,5.54-4.42,9.6c-0.83,4.06-1.22,9.23-1.17,15.5c0.05,6.27,0.52,11.42,1.42,15.45
				c0.89,4.03,2.42,7.21,4.58,9.54c2.16,2.33,5.08,3.98,8.78,4.94c3.7,0.96,8.37,1.43,14.03,1.43c5.65,0,10.32-0.49,14-1.45
				c3.68-0.96,6.58-2.61,8.7-4.95c2.12-2.33,3.59-5.52,4.42-9.55c0.83-4.03,1.22-9.18,1.17-15.45c-0.05-6.27-0.52-11.43-1.42-15.49
				C150.93,50.15,149.41,46.96,147.25,44.62z M136.81,82.87c0.02,2.24-0.59,3.81-1.82,4.7c-1.23,0.9-3.44,1.35-6.61,1.35
				l-15.51,0.01L112.6,56.5c-0.02-2.24,0.57-3.8,1.77-4.7c1.2-0.9,3.38-1.35,6.56-1.35l15.62-0.01L136.81,82.87z"/>
		</g>
		<g>
			<path class="st1" d="M203.98,68.5l-0.62,0c-0.01-0.96-0.21-1.9-0.59-2.83c-0.39-0.93-1.07-2.12-2.05-3.6l-19.89-29.34l-15.2,0.01
				l0.49,59.97l15.41-0.01l-0.29-35.79l0.62,0c0.08,0.96,0.31,1.89,0.69,2.78c0.39,0.9,1.07,2.11,2.05,3.64l19.89,29.35l15.1-0.01
				L219.1,32.7l-15.41,0.01L203.98,68.5z"/>
		</g>
		<g>
			<polygon class="st1" points="273.87,39.59 226.81,39.62 226.91,51.42 242.73,51.41 243.12,99.58 258.53,99.56 258.14,51.4 
				273.96,51.39 			"/>
		</g>
		<g>
			<path class="st1" d="M288.91,32.65l-17.41,59.98l15.41-0.01l3.34-11.52l21.78-0.02l3.53,11.51l15.41-0.01L312.6,32.63
				L288.91,32.65z M293.35,70.45l7.05-24.28l0.93,0l7.44,24.27L293.35,70.45z"/>
		</g>
		<g>
			<polygon class="st1" points="352.99,39.53 337.58,39.54 338.06,99.5 375.3,99.48 375.2,87.68 353.38,87.69 			"/>
		</g>
		<g>
			<path class="st1" d="M421.54,62.3l0-0.58c2.26-1.28,3.96-3.1,5.07-5.47c1.12-2.37,1.66-5.15,1.64-8.35
				c-0.04-5.31-1.63-9.19-4.75-11.65c-3.12-2.46-8.1-3.69-14.92-3.68l-27.1,0.02l0.49,59.97l30.61-0.02
				c6.21,0,10.95-1.46,14.24-4.38c3.29-2.91,4.91-7.09,4.86-12.52c-0.03-3.26-0.96-6.09-2.81-8.49
				C427.02,64.74,424.58,63.13,421.54,62.3z M411.51,44.46c0.87,1.02,1.32,2.91,1.34,5.66c0.02,2.69-0.41,4.54-1.3,5.57
				c-0.89,1.02-2.57,1.54-5.05,1.54l-9.41,0.01l-0.12-14.3l9.52-0.01C408.97,42.92,410.64,43.44,411.51,44.46z M414.44,80.39
				c-1.02,1.19-2.74,1.78-5.16,1.78l-12,0.01l-0.12-14.97l12.1-0.01c2.41,0,4.12,0.54,5.13,1.63c1.01,1.09,1.52,2.94,1.55,5.56
				C415.97,77.2,415.47,79.2,414.44,80.39z"/>
		</g>
		<g>
			<path class="st1" d="M452.69,39.45l-17.41,59.98l15.41-0.01l3.34-11.52l21.78-0.02l3.53,11.51l15.41-0.01l-18.38-59.95
				L452.69,39.45z M457.13,77.25l7.05-24.28l0.93,0l7.44,24.27L457.13,77.25z"/>
		</g>
		<g>
			<path class="st1" d="M540.11,68.25l-0.62,0c-0.01-0.96-0.21-1.9-0.59-2.83c-0.39-0.93-1.07-2.12-2.05-3.6l-19.89-29.34
				l-15.2,0.01l0.49,59.97l15.41-0.01l-0.29-35.79l0.62,0c0.08,0.96,0.31,1.89,0.7,2.78c0.39,0.9,1.07,2.11,2.05,3.64l19.89,29.35
				l15.1-0.01l-0.49-59.97l-15.41,0.01L540.11,68.25z"/>
		</g>
		<g>
			<path class="st1" d="M622.78,53.86c-0.9-4.06-2.42-7.26-4.58-9.59c-2.16-2.33-5.08-3.98-8.78-4.93
				c-3.7-0.96-8.37-1.43-14.03-1.43c-5.65,0-10.32,0.49-14,1.45c-3.68,0.96-6.58,2.61-8.7,4.95c-2.12,2.34-3.59,5.54-4.42,9.6
				c-0.83,4.06-1.22,9.23-1.17,15.5c0.05,6.27,0.52,11.42,1.42,15.45c0.89,4.03,2.42,7.21,4.58,9.54c2.16,2.33,5.08,3.98,8.78,4.94
				c3.7,0.96,8.37,1.43,14.03,1.43c5.65,0,10.32-0.49,14-1.45c3.68-0.96,6.58-2.61,8.7-4.95c2.12-2.33,3.59-5.52,4.42-9.55
				c0.83-4.03,1.22-9.18,1.17-15.45C624.15,63.09,623.67,57.92,622.78,53.86z M607.76,82.51c0.02,2.24-0.59,3.81-1.82,4.7
				c-1.23,0.9-3.44,1.35-6.61,1.35l-15.51,0.01l-0.26-32.43c-0.02-2.24,0.57-3.8,1.77-4.7c1.2-0.9,3.38-1.35,6.56-1.35l15.62-0.01
				L607.76,82.51z"/>
		</g>
	</g>
	<g>
		<g>
			<rect x="1" y="113.24" class="st0" width="212.89" height="3.7"/>
		</g>
		<g>
			<rect x="213.89" y="113.24" class="st1" width="212.89" height="3.7"/>
		</g>
		<rect x="426.78" y="113.24" class="st2" width="212.89" height="3.7"/>
	</g>
</g>
</svg>
